M48
METRIC,LZ,000.000
;FILE_FORMAT=3:3
;TYPE=PLATED
;Layer: PTH_Through
;EasyEDA v6.5.22, 2023-04-11 18:51:13
;10
;Gerber Generator version 0.2
;Holesize 1 = 0.900 mm
T01C0.900
;Holesize 2 = 1.000 mm
T02C1.000
%
G05
G90
T01
X030480Y-027940
X040640Y-027940
X030480Y-035560
X040640Y-035560
X040640Y-050800
X030480Y-050800
X040640Y-055880
X030480Y-055880
T02
X013490Y-050800
X016990Y-050800
X021110Y-058420
X024610Y-058420
X026670Y-027940
X024130Y-027940
X026670Y-035560
X024130Y-035560
X015240Y-027940
X010160Y-025400
X015240Y-022860
X012700Y-043180
X015240Y-038100
X017780Y-043180
X012700Y-033020
X020320Y-033020
X017780Y-030480
X018796Y-022860
X022860Y-022860
X027940Y-022860
X015240Y-035560
X021082Y-052070
M30
