G04 Layer: TopLayer*
G04 EasyEDA v6.5.22, 2023-04-11 18:51:13*
G04 Gerber Generator version 0.2*
G04 Scale: 100 percent, Rotated: No, Reflected: No *
G04 Dimensions in millimeters *
G04 leading zeros omitted , absolute positions ,4 integer and 5 decimal *
%FSLAX45Y45*%
%MOMM*%

%ADD10C,0.8000*%
%ADD11C,1.6000*%
%ADD12C,1.5240*%
%ADD13R,1.5240X1.5240*%
%ADD14C,1.8796*%
%ADD15C,1.8000*%

%LPD*%
D10*
X2110978Y-5841997D02*
G01*
X2110978Y-5209773D01*
X2108194Y-5206989D01*
X1698993Y-5080000D02*
G01*
X1777997Y-5003789D01*
X1777987Y-5003800D01*
X1777997Y-4826762D01*
X1777997Y-4317992D02*
G01*
X1777997Y-4826762D01*
X3175000Y-4826000D01*
X3429000Y-5080000D01*
X3429000Y-5334000D01*
X3175000Y-5588000D01*
X3048000Y-5588000D01*
X1270000Y-4318000D02*
G01*
X1270000Y-4978400D01*
X1348994Y-5057394D01*
X1348994Y-5080000D01*
X1524000Y-2286000D02*
G01*
X2285994Y-2286000D01*
X2286000Y-2285994D01*
X4064000Y-2794000D02*
G01*
X3556000Y-2286000D01*
X2794000Y-2286000D01*
X1016000Y-2540000D02*
G01*
X1270000Y-2794000D01*
X1270000Y-4318000D01*
X4064000Y-2794000D02*
G01*
X4064000Y-5588000D01*
X2032000Y-3302000D02*
G01*
X2159000Y-3302000D01*
X2413000Y-3556000D01*
X1778000Y-3048000D02*
G01*
X1778000Y-4318000D01*
X1524000Y-2794000D02*
G01*
X1524000Y-3555984D01*
X1524000Y-3555984D02*
G01*
X1524000Y-3810000D01*
X1524000Y-2794000D02*
G01*
X2413000Y-2794000D01*
X2460985Y-5842000D02*
G01*
X2460985Y-5667014D01*
X3048000Y-5080000D01*
X2667000Y-3556000D02*
G01*
X3048000Y-3556000D01*
X3048000Y-2794000D02*
G01*
X2667000Y-2794000D01*
D11*
G01*
X1348981Y-5080000D03*
G01*
X1698993Y-5080000D03*
G01*
X2110978Y-5841997D03*
G01*
X2460990Y-5841997D03*
D12*
G01*
X2666994Y-2793994D03*
G01*
X2412994Y-2793994D03*
G01*
X2666994Y-3555992D03*
G01*
X2412994Y-3555992D03*
G01*
X1523997Y-2793994D03*
G01*
X1015997Y-2539994D03*
D13*
G01*
X1523997Y-2285994D03*
D12*
G01*
X1269997Y-4317992D03*
G01*
X1523997Y-3809992D03*
D13*
G01*
X1777997Y-4317992D03*
D14*
G01*
X3047992Y-2793994D03*
G01*
X4063992Y-2793994D03*
G01*
X3047992Y-3555992D03*
G01*
X4063992Y-3555992D03*
G01*
X4063992Y-5079989D03*
G01*
X3047992Y-5079989D03*
G01*
X4063992Y-5587989D03*
G01*
X3047992Y-5587989D03*
D15*
G01*
X1269997Y-3301992D03*
G01*
X2031994Y-3301992D03*
G01*
X1777997Y-3047994D03*
G01*
X1879597Y-2285994D03*
G01*
X2285994Y-2285994D03*
G01*
X2793994Y-2285994D03*
G01*
X1524000Y-3555984D03*
G01*
X2108194Y-5206989D03*
M02*
